<svg
  xmlns="http://www.w3.org/2000/svg"
  viewBox="0 0 64 64"
  role="img"
  aria-labelledby="title"
>
  <title>Community Sports</title>
  <rect width="64" height="64" rx="16" fill="#0f766e" />
  <circle cx="32" cy="32" r="18" fill="#f8fafc" />
  <path
    d="M32 14a18 18 0 0 1 0 36a18 18 0 0 1 0-36Zm0 7a11 11 0 0 0 0 22a11 11 0 0 0 0-22Z"
    fill="#0f766e"
  />
  <path
    d="M14 32h36M32 14c4 4 7 11 7 18s-3 14-7 18c-4-4-7-11-7-18s3-14 7-18Z"
    fill="none"
    stroke="#0f766e"
    stroke-linecap="round"
    stroke-linejoin="round"
    stroke-width="3"
  />
</svg>
